HIERARCHY
ROOT Hips
{
	OFFSET -0.113297 88.952019 2.917459
	CHANNELS 6 Xposition Yposition Zposition Zrotation Yrotation Xrotation 
	JOINT Spine
	{
		OFFSET 0.000000 8.814246 -2.080107
		CHANNELS 3 Zrotation Yrotation Xrotation
		JOINT Spine1
		{
			OFFSET -0.000000 8.844141 0.000000
			CHANNELS 3 Zrotation Yrotation Xrotation
			JOINT Spine2
			{
				OFFSET 0.000000 11.682268 0.000000
				CHANNELS 3 Zrotation Yrotation Xrotation
				JOINT Spine3
				{
					OFFSET 0.000000 11.746700 -0.000000
					CHANNELS 3 Zrotation Yrotation Xrotation
					JOINT Neck
					{
						OFFSET -0.000000 17.658264 0.000000
						CHANNELS 3 Zrotation Yrotation Xrotation
						JOINT Neck1
						{
							OFFSET 0.000000 5.101515 -0.000000
							CHANNELS 3 Zrotation Yrotation Xrotation
							JOINT Head
							{
								OFFSET 0.000000 5.101515 0.000000
								CHANNELS 3 Zrotation Yrotation Xrotation
								JOINT HeadEnd
								{
									OFFSET -0.000000 11.655085 -0.000000
									CHANNELS 3 Zrotation Yrotation Xrotation
									End Site
									{
										OFFSET 0.000000 0.000000 0.000000
									}
								}
							}
						}
					}
					JOINT RightShoulder
					{
						OFFSET -2.625389 11.175210 0.000000
						CHANNELS 3 Zrotation Yrotation Xrotation
						JOINT RightArm
						{
							OFFSET -0.000000 10.434715 -0.000000
							CHANNELS 3 Zrotation Yrotation Xrotation
							JOINT RightForeArm
							{
								OFFSET 0.000000 29.628420 0.000000
								CHANNELS 3 Zrotation Yrotation Xrotation
								JOINT RightHand
								{
									OFFSET 0.000000 22.857611 0.000000
									CHANNELS 3 Zrotation Yrotation Xrotation
									JOINT RightHandThumb1
									{
										OFFSET -2.867323 3.959563 2.944291
										CHANNELS 3 Zrotation Yrotation Xrotation
										JOINT RightHandThumb2
										{
											OFFSET -0.000000 3.350399 0.000000
											CHANNELS 3 Zrotation Yrotation Xrotation
											JOINT RightHandThumb3
											{
												OFFSET -0.000000 3.756509 -0.000000
												CHANNELS 3 Zrotation Yrotation Xrotation
												JOINT RightHandThumb4
												{
													OFFSET 0.000000 3.147345 -0.000000
													CHANNELS 3 Zrotation Yrotation Xrotation
													End Site
													{
														OFFSET 0.000000 0.000000 0.000000
													}
												}
											}
										}
									}
									JOINT RightHandIndex1
									{
										OFFSET -0.086752 10.030893 2.345280
										CHANNELS 3 Zrotation Yrotation Xrotation
										JOINT RightHandIndex2
										{
											OFFSET 0.000000 4.061090 0.000000
											CHANNELS 3 Zrotation Yrotation Xrotation
											JOINT RightHandIndex3
											{
												OFFSET 0.000000 3.248873 -0.000000
												CHANNELS 3 Zrotation Yrotation Xrotation
												JOINT RightHandIndex4
												{
													OFFSET -0.000000 2.639709 0.000000
													CHANNELS 3 Zrotation Yrotation Xrotation
													End Site
													{
														OFFSET 0.000000 0.000000 0.000000
													}
												}
											}
										}
									}
									JOINT RightHandMiddle1
									{
										OFFSET 0.104102 9.502952 0.006768
										CHANNELS 3 Zrotation Yrotation Xrotation
										JOINT RightHandMiddle2
										{
											OFFSET -0.000000 4.568727 0.000000
											CHANNELS 3 Zrotation Yrotation Xrotation
											JOINT RightHandMiddle3
											{
												OFFSET 0.000000 3.654981 -0.000000
												CHANNELS 3 Zrotation Yrotation Xrotation
												JOINT RightHandMiddle4
												{
													OFFSET 0.000000 2.741236 -0.000000
													CHANNELS 3 Zrotation Yrotation Xrotation
													End Site
													{
														OFFSET 0.000000 0.000000 0.000000
													}
												}
											}
										}
									}
									JOINT RightHandRing1
									{
										OFFSET 0.086752 8.921708 -2.267442
										CHANNELS 3 Zrotation Yrotation Xrotation
										JOINT RightHandRing2
										{
											OFFSET -0.000000 4.061090 0.000000
											CHANNELS 3 Zrotation Yrotation Xrotation
											JOINT RightHandRing3
											{
												OFFSET -0.000000 3.654981 0.000000
												CHANNELS 3 Zrotation Yrotation Xrotation
												JOINT RightHandRing4
												{
													OFFSET -0.000000 2.741236 0.000000
													CHANNELS 3 Zrotation Yrotation Xrotation
													End Site
													{
														OFFSET 0.000000 0.000000 0.000000
													}
												}
											}
										}
									}
									JOINT RightHandPinky1
									{
										OFFSET -0.173504 7.976997 -4.467199
										CHANNELS 3 Zrotation Yrotation Xrotation
										JOINT RightHandPinky2
										{
											OFFSET -0.000000 3.350399 -0.000000
											CHANNELS 3 Zrotation Yrotation Xrotation
											JOINT RightHandPinky3
											{
												OFFSET 0.000000 2.842763 -0.000000
												CHANNELS 3 Zrotation Yrotation Xrotation
												JOINT RightHandPinky4
												{
													OFFSET -0.000000 2.639709 -0.000000
													CHANNELS 3 Zrotation Yrotation Xrotation
													End Site
													{
														OFFSET 0.000000 0.000000 0.000000
													}
												}
											}
										}
									}
									JOINT RightForeArmEnd
									{
										OFFSET 0.000000 0.000000 0.000000
										CHANNELS 3 Zrotation Yrotation Xrotation
										End Site
										{
											OFFSET 0.000000 0.000000 0.000000
										}
									}
								}
								JOINT RightArmEnd
								{
									OFFSET 0.000000 0.000000 0.000000
									CHANNELS 3 Zrotation Yrotation Xrotation
									End Site
									{
										OFFSET 0.000000 0.000000 0.000000
									}
								}
							}
						}
					}
					JOINT LeftShoulder
					{
						OFFSET 2.625389 11.175210 0.000000
						CHANNELS 3 Zrotation Yrotation Xrotation
						JOINT LeftArm
						{
							OFFSET 0.000000 10.813635 0.000000
							CHANNELS 3 Zrotation Yrotation Xrotation
							JOINT LeftForeArm
							{
								OFFSET 0.000000 28.724781 0.000000
								CHANNELS 3 Zrotation Yrotation Xrotation
								JOINT LeftHand
								{
									OFFSET 0.644384 25.716167 -0.328871
									CHANNELS 3 Zrotation Yrotation Xrotation
									JOINT LeftHandThumb1
									{
										OFFSET 2.867323 3.959563 2.944291
										CHANNELS 3 Zrotation Yrotation Xrotation
										JOINT LeftHandThumb2
										{
											OFFSET -0.000000 3.350399 -0.000000
											CHANNELS 3 Zrotation Yrotation Xrotation
											JOINT LeftHandThumb3
											{
												OFFSET -0.000000 3.756509 -0.000000
												CHANNELS 3 Zrotation Yrotation Xrotation
												JOINT LeftHandThumb4
												{
													OFFSET 0.000000 3.100000 0.000000
													CHANNELS 3 Zrotation Yrotation Xrotation
													End Site
													{
														OFFSET 0.000000 0.000000 0.000000
													}
												}
											}
										}
									}
									JOINT LeftHandIndex1
									{
										OFFSET 0.086752 10.030893 2.345280
										CHANNELS 3 Zrotation Yrotation Xrotation
										JOINT LeftHandIndex2
										{
											OFFSET 0.000000 4.061090 -0.000000
											CHANNELS 3 Zrotation Yrotation Xrotation
											JOINT LeftHandIndex3
											{
												OFFSET -0.000000 3.248873 -0.000000
												CHANNELS 3 Zrotation Yrotation Xrotation
												JOINT LeftHandIndex4
												{
													OFFSET -0.000000 2.639709 -0.000000
													CHANNELS 3 Zrotation Yrotation Xrotation
													End Site
													{
														OFFSET 0.000000 0.000000 0.000000
													}
												}
											}
										}
									}
									JOINT LeftHandMiddle1
									{
										OFFSET -0.104102 9.502952 0.006768
										CHANNELS 3 Zrotation Yrotation Xrotation
										JOINT LeftHandMiddle2
										{
											OFFSET 0.000000 4.568727 -0.000000
											CHANNELS 3 Zrotation Yrotation Xrotation
											JOINT LeftHandMiddle3
											{
												OFFSET 0.000000 3.654981 -0.000000
												CHANNELS 3 Zrotation Yrotation Xrotation
												JOINT LeftHandMiddle4
												{
													OFFSET -0.000000 2.741236 -0.000000
													CHANNELS 3 Zrotation Yrotation Xrotation
													End Site
													{
														OFFSET 0.000000 0.000000 0.000000
													}
												}
											}
										}
									}
									JOINT LeftHandRing1
									{
										OFFSET -0.086752 8.921708 -2.267442
										CHANNELS 3 Zrotation Yrotation Xrotation
										JOINT LeftHandRing2
										{
											OFFSET 0.000000 4.061090 0.000000
											CHANNELS 3 Zrotation Yrotation Xrotation
											JOINT LeftHandRing3
											{
												OFFSET -0.000000 3.654981 -0.000000
												CHANNELS 3 Zrotation Yrotation Xrotation
												JOINT LeftHandRing4
												{
													OFFSET 0.000000 2.741236 0.000000
													CHANNELS 3 Zrotation Yrotation Xrotation
													End Site
													{
														OFFSET 0.000000 0.000000 0.000000
													}
												}
											}
										}
									}
									JOINT LeftHandPinky1
									{
										OFFSET 0.173504 7.976997 -4.467199
										CHANNELS 3 Zrotation Yrotation Xrotation
										JOINT LeftHandPinky2
										{
											OFFSET 0.000000 3.350399 0.000000
											CHANNELS 3 Zrotation Yrotation Xrotation
											JOINT LeftHandPinky3
											{
												OFFSET 0.000000 2.842763 0.000000
												CHANNELS 3 Zrotation Yrotation Xrotation
												JOINT LeftHandPinky4
												{
													OFFSET -0.000000 2.639709 -0.000000
													CHANNELS 3 Zrotation Yrotation Xrotation
													End Site
													{
														OFFSET 0.000000 0.000000 0.000000
													}
												}
											}
										}
									}
									JOINT LeftForeArmEnd
									{
										OFFSET 0.000000 0.000000 0.000000
										CHANNELS 3 Zrotation Yrotation Xrotation
										End Site
										{
											OFFSET 0.000000 0.000000 0.000000
										}
									}
								}
								JOINT LeftArmEnd
								{
									OFFSET 0.000000 0.000000 0.000000
									CHANNELS 3 Zrotation Yrotation Xrotation
									End Site
									{
										OFFSET 0.000000 0.000000 0.000000
									}
								}
							}
						}
					}
				}
			}
		}
	}
	JOINT RightUpLeg
	{
		OFFSET -11.289943 0.000000 0.000000
		CHANNELS 3 Zrotation Yrotation Xrotation
		JOINT RightLeg
		{
			OFFSET -0.000000 -38.200325 0.000000
			CHANNELS 3 Zrotation Yrotation Xrotation
			JOINT RightFoot
			{
				OFFSET 0.000000 -39.900856 -0.000000
				CHANNELS 3 Zrotation Yrotation Xrotation
				JOINT RightToeBase
				{
					OFFSET -0.000000 -0.000000 15.261641
					CHANNELS 3 Zrotation Yrotation Xrotation
					JOINT RightToeBaseEnd
					{
						OFFSET 0.000000 -0.000000 7.370709
						CHANNELS 3 Zrotation Yrotation Xrotation
						End Site
						{
							OFFSET 0.000000 0.000000 0.000000
						}
					}
				}
				JOINT RightLegEnd
				{
					OFFSET 0.000000 0.000000 0.000000
					CHANNELS 3 Zrotation Yrotation Xrotation
					End Site
					{
						OFFSET 0.000000 0.000000 0.000000
					}
				}
			}
			JOINT RightUpLegEnd
			{
				OFFSET 0.000000 0.000000 0.000000
				CHANNELS 3 Zrotation Yrotation Xrotation
				End Site
				{
					OFFSET 0.000000 0.000000 0.000000
				}
			}
		}
	}
	JOINT LeftUpLeg
	{
		OFFSET 11.315661 0.000000 -0.000000
		CHANNELS 3 Zrotation Yrotation Xrotation
		JOINT LeftLeg
		{
			OFFSET -0.000000 -38.200325 0.000000
			CHANNELS 3 Zrotation Yrotation Xrotation
			JOINT LeftFoot
			{
				OFFSET 0.000000 -39.900856 -0.000000
				CHANNELS 3 Zrotation Yrotation Xrotation
				JOINT LeftToeBase
				{
					OFFSET -0.000000 0.000000 15.261641
					CHANNELS 3 Zrotation Yrotation Xrotation
					JOINT LeftToeBaseEnd
					{
						OFFSET 0.000000 -0.000000 7.539996
						CHANNELS 3 Zrotation Yrotation Xrotation
						End Site
						{
							OFFSET 0.000000 0.000000 0.000000
						}
					}
				}
				JOINT LeftLegEnd
				{
					OFFSET 0.000000 0.000000 0.000000
					CHANNELS 3 Zrotation Yrotation Xrotation
					End Site
					{
						OFFSET 0.000000 0.000000 0.000000
					}
				}
			}
			JOINT LeftUpLegEnd
			{
				OFFSET 0.000000 0.000000 0.000000
				CHANNELS 3 Zrotation Yrotation Xrotation
				End Site
				{
					OFFSET 0.000000 0.000000 0.000000
				}
			}
		}
	}
}
MOTION
Frames: 4
Frame Time: 0.016667
-0.113297 88.952019 2.917459 1.063894 0.138132 -7.396854 -2.022517 0.400771 6.803146 0.389791 0.072762 2.415909 -0.288945 2.395504 2.610919 0.474307 0.783013 0.733901 -1.653489 0.174063 2.795315 -0.634945 -1.300371 -4.030026 0.016495 0.676670 -17.135262 0.000000 0.000000 0.000000 90.525940 -0.068857 7.688839 74.364388 -36.734428 -10.128831 -1.007912 13.300708 104.066818 14.149224 32.405785 6.981409 27.232698 -1.367276 33.848232 0.000000 0.000000 -65.879997 0.000000 0.000000 -45.750000 0.000000 0.000000 0.000000 91.348007 16.995544 -1.504668 60.999786 8.134714 -15.427492 61.128658 8.618550 -14.542894 0.000000 0.000000 0.000000 75.304955 6.998833 -1.126114 52.432415 1.747042 -5.573924 52.460812 2.356551 -4.780633 0.000000 0.000000 0.000000 47.014423 -8.971842 4.810636 33.156193 0.527279 4.945043 33.162102 -1.147080 3.851133 0.000000 0.000000 0.000000 28.974686 -25.989023 1.847046 19.286770 2.472681 8.984292 19.273285 -1.303151 7.663720 0.000000 0.000000 0.000000 0.000000 0.000000 0.000000 0.000000 0.000000 0.000000 -88.947128 -0.183775 9.866177 -71.610817 40.448479 -9.194448 1.370358 -16.280193 105.035446 -20.212347 -24.538813 12.177992 -27.232698 1.367276 33.848232 0.000000 0.000000 -65.879997 -0.000001 -0.000000 -45.750000 0.000000 0.000000 0.000000 -97.470009 16.993374 1.680537 -65.044876 9.260452 16.007183 -65.196220 9.681171 15.087452 0.000000 0.000000 0.000000 -93.041489 6.960820 6.103047 -65.142578 3.082523 6.383807 -65.194794 3.502480 5.474760 0.000000 0.000000 0.000000 -94.822845 -8.882948 9.330209 -64.630028 -3.189119 -8.187294 -64.744308 -4.044310 -6.375726 0.000000 0.000000 0.000000 -94.301682 -25.629028 10.389302 -56.565327 -8.693080 -23.238361 -57.143272 -10.880811 -19.839964 0.000000 0.000000 0.000000 0.000000 0.000000 0.000000 0.000000 0.000000 0.000000 -6.773202 6.736802 3.913229 -0.227267 -1.450527 8.685178 2.453985 -3.980982 20.197014 -0.896002 1.348637 -23.455360 0.000000 0.000000 0.000000 0.000000 0.000000 0.000000 0.000000 0.000000 0.000000 5.527903 14.241912 7.272151 0.108976 1.321599 4.842632 -2.952176 8.425232 24.443304 0.835423 -1.870047 -21.858551 0.000000 0.000000 0.000000 0.000000 0.000000 0.000000 0.000000 0.000000 0.000000 
-0.116247 88.743416 3.032892 0.842884 0.517515 -9.570788 -1.860793 0.413144 7.660062 0.253237 0.166834 4.061237 0.816859 1.595915 3.814810 1.483309 0.762543 2.375059 -2.960429 0.665684 -2.450609 -0.282257 -0.580405 -7.000350 0.227276 0.685210 -17.406847 0.000000 0.000000 0.000000 89.767693 0.055636 6.873775 72.146133 -33.532810 -6.096777 -1.514323 9.207195 97.792763 13.349715 33.880589 13.209449 25.170704 -2.236609 33.722027 0.000012 0.000013 -58.261532 -0.000032 0.000057 -41.337227 -0.000012 -0.000010 -0.000011 70.045853 14.242984 -4.339342 49.128353 1.599527 -9.695392 49.110756 2.458574 -8.799413 -0.000003 -0.000012 -0.000050 65.406212 6.475942 -1.997193 46.210880 0.028550 -3.804386 46.378410 0.843059 -3.157437 0.000030 0.000038 0.000022 53.195621 -10.414285 -2.058980 36.448933 0.615592 4.836042 36.767216 -1.123953 3.739738 -0.000033 0.000338 -0.000012 35.284107 -31.652338 -2.134462 21.529490 0.506489 11.919698 21.950878 -3.507935 10.361184 0.000155 0.000003 -0.000040 0.000000 0.000000 0.000000 0.000000 0.000000 0.000000 -89.295700 0.360133 10.316048 -71.125626 37.674824 -6.697244 0.965761 -18.197779 102.113831 -23.343651 -24.423391 20.583637 -25.147516 1.477118 34.352219 0.000012 0.000019 -61.884121 -0.000117 -0.000022 -42.920948 -0.001406 0.000004 0.000851 -94.119629 17.748844 1.801027 -59.644146 1.150021 9.508723 -59.861713 1.996760 8.341202 0.000014 0.001059 0.000027 -88.409485 7.566524 5.917578 -59.601315 -0.137208 3.616102 -59.437996 0.623168 2.982292 -0.000493 -0.000037 0.000146 -88.979759 -9.831105 9.381105 -60.783817 0.642558 -4.952366 -60.705166 -0.884323 -3.641875 -0.000210 0.000002 -0.000002 -88.579041 -28.128653 12.264845 -55.943260 0.593927 -14.205450 -56.494694 -2.787835 -11.301604 0.000100 -0.000001 -0.000024 0.000000 0.000000 0.000000 0.000000 0.000000 0.000000 -7.062921 2.392533 6.269915 -0.239051 -0.850049 11.662656 2.807152 -1.054713 18.375154 -0.712290 0.923292 -21.036562 0.000000 0.000000 0.000000 0.000000 0.000000 0.000000 0.000000 0.000000 0.000000 7.150304 13.181710 10.388452 0.184178 1.127042 5.207582 -3.305245 8.714260 22.170610 0.888465 -1.529617 -19.788246 0.000000 0.000000 0.000000 0.000000 0.000000 0.000000 0.000000 0.000000 0.000000 
-0.190995 88.774956 2.981017 0.844122 0.723250 -9.617615 -1.782387 0.376946 7.671368 0.090901 0.192571 4.034544 0.952580 1.458633 3.875872 1.485389 0.725658 2.529369 -3.556211 1.059110 -2.120686 -0.206687 -0.379744 -6.821974 0.213421 0.630479 -17.397205 0.000000 0.000000 0.000000 89.623398 0.073556 7.013233 71.414162 -32.495770 -5.232898 -1.539780 9.534317 97.826614 12.839999 34.192757 12.369479 24.983009 -2.258035 33.791222 -0.000004 0.000010 -57.816792 -0.000020 0.000037 -41.023861 0.000011 -0.000004 -0.000013 68.673752 14.209706 -4.931874 48.210903 1.821333 -10.416121 48.191170 2.673035 -9.450102 0.000001 0.000004 -0.000035 64.449524 6.439569 -2.513522 45.557678 0.124727 -4.102397 45.726772 0.917637 -3.398589 0.000011 0.000054 0.000016 53.103344 -10.280581 -2.570011 36.316486 0.426157 5.307305 36.646656 -1.245216 4.097785 -0.000031 0.000442 -0.000014 35.434940 -31.279207 -1.981557 21.801018 -0.074846 13.447990 22.217110 -3.947922 11.608170 0.000091 0.000009 -0.000026 0.000000 0.000000 0.000000 0.000000 0.000000 0.000000 -89.120010 0.336935 10.145061 -70.673988 36.897701 -6.629029 0.886728 -17.852047 102.286514 -24.122585 -24.737139 21.048285 -25.006910 1.513124 34.364880 0.000023 0.000017 -61.562016 -0.000143 -0.000029 -42.709187 -0.000932 0.000028 0.000559 -93.005486 17.650526 2.022455 -58.976353 1.321445 10.139102 -59.218719 2.159241 8.899026 0.000023 0.000848 0.000035 -87.408974 7.507568 5.938454 -59.015358 -0.065590 3.861679 -58.843723 0.677435 3.183568 -0.000802 -0.000050 0.000129 -87.808388 -9.737884 9.131840 -60.113270 0.519989 -5.310896 -60.036449 -0.961217 -3.904366 -0.000397 -0.000001 0.000008 -86.933853 -27.872799 11.805842 -55.077629 0.267257 -15.284348 -55.650116 -3.040183 -12.152577 0.000057 0.000006 -0.000035 0.000000 0.000000 0.000000 0.000000 0.000000 0.000000 -7.081015 2.089741 6.179976 -0.233568 -0.834287 11.429069 2.706985 -0.769606 18.321886 -0.764593 0.921580 -20.835402 0.000000 0.000000 0.000000 0.000000 0.000000 0.000000 0.000000 0.000000 0.000000 7.259068 13.456038 10.419273 0.186721 1.122600 5.278130 -3.377546 8.949214 22.066994 0.919421 -1.516235 -19.868443 0.000000 0.000000 0.000000 0.000000 0.000000 0.000000 0.000000 0.000000 0.000000 
-0.257115 88.815781 2.954142 0.915865 0.895378 -9.661350 -1.764009 0.356010 7.663760 -0.001131 0.213647 3.977663 0.907582 1.497172 3.950336 1.437915 0.730698 2.657280 -4.178052 1.411197 -2.093804 -0.191881 -0.289466 -6.807291 0.161329 0.613084 -17.392479 0.000000 0.000000 0.000000 89.419250 0.064896 7.061962 71.088585 -31.010410 -4.679042 -1.532250 9.902291 97.656349 12.272279 34.473030 11.950381 24.584629 -2.271625 33.963657 -0.000010 0.000009 -56.938240 -0.000019 0.000040 -40.372101 0.000012 -0.000005 -0.000011 66.799004 14.294039 -5.388787 46.854210 1.975261 -10.959742 46.837791 2.824347 -9.943861 -0.000003 0.000003 -0.000032 62.880802 6.445562 -2.942382 44.414917 0.190152 -4.323728 44.595573 0.969578 -3.577831 0.000011 0.000075 0.000015 52.207390 -10.167860 -3.024108 35.626476 0.299156 5.646554 35.957645 -1.325788 4.355167 -0.000029 0.000551 -0.000012 34.880905 -30.827766 -2.061634 21.518179 -0.466506 14.515036 21.913685 -4.232784 12.479857 0.000092 0.000009 -0.000021 0.000000 0.000000 0.000000 0.000000 0.000000 0.000000 -88.869797 0.306571 9.961665 -70.422127 36.171989 -6.701478 0.839344 -17.636404 102.439392 -24.441879 -24.684313 21.658640 -24.771688 1.540881 34.425877 0.000023 0.000018 -61.044697 -0.000141 -0.000029 -42.349064 -0.000536 0.000026 0.000330 -91.738693 17.672249 1.944319 -58.167568 1.439373 10.581217 -58.435112 2.270176 9.294283 0.000020 0.000798 0.000035 -86.208382 7.490939 5.807718 -58.274807 -0.016564 4.032868 -58.099613 0.714784 3.323910 -0.001169 -0.000051 0.000135 -86.507065 -9.663281 8.872235 -59.337334 0.437017 -5.556117 -59.257496 -1.012585 -4.084298 -0.000480 -0.000001 0.000008 -85.264244 -27.572878 11.353453 -54.205658 0.048375 -16.001541 -54.773800 -3.203113 -12.717843 0.000061 0.000003 -0.000036 0.000000 0.000000 0.000000 0.000000 0.000000 0.000000 -7.146891 1.965202 6.102852 -0.228394 -0.822974 11.266768 2.612328 -0.693971 18.361454 -0.797915 0.915708 -20.703663 0.000000 0.000000 0.000000 0.000000 0.000000 0.000000 0.000000 0.000000 0.000000 7.291115 13.586096 10.465444 0.187347 1.122566 5.259534 -3.424428 9.060227 22.041292 0.948489 -1.509284 -19.910942 0.000000 0.000000 0.000000 0.000000 0.000000 0.000000 0.000000 0.000000 0.000000 
